solid CATIA STL
  facet normal  0.000000e+000  1.000000e+000  0.000000e+000
    outer loop
      vertex -1.996000e+001  5.000000e+000  3.000000e+001
      vertex -1.826000e+001  5.000000e+000 -2.500000e+001
      vertex -1.996000e+001  5.000000e+000 -3.000000e+001
    endloop
  endfacet
  facet normal  0.000000e+000  1.000000e+000  0.000000e+000
    outer loop
      vertex -1.996000e+001  5.000000e+000 -3.000000e+001
      vertex -1.826000e+001  5.000000e+000 -2.500000e+001
      vertex -1.666000e+001  5.000000e+000 -2.500000e+001
    endloop
  endfacet
  facet normal  0.000000e+000  1.000000e+000  0.000000e+000
    outer loop
      vertex -1.996000e+001  5.000000e+000 -3.000000e+001
      vertex -1.666000e+001  5.000000e+000 -2.500000e+001
      vertex -1.496000e+001  5.000000e+000 -3.000000e+001
    endloop
  endfacet
  facet normal  0.000000e+000  1.000000e+000  0.000000e+000
    outer loop
      vertex -1.826000e+001  5.000000e+000 -2.500000e+001
      vertex -1.996000e+001  5.000000e+000  3.000000e+001
      vertex -1.826000e+001  5.000000e+000  2.500000e+001
    endloop
  endfacet
  facet normal  0.000000e+000  1.000000e+000  -0.000000e+000
    outer loop
      vertex -1.826000e+001  5.000000e+000  2.500000e+001
      vertex -1.996000e+001  5.000000e+000  3.000000e+001
      vertex -1.496000e+001  5.000000e+000  3.000000e+001
    endloop
  endfacet
  facet normal  0.000000e+000  1.000000e+000  0.000000e+000
    outer loop
      vertex -1.826000e+001  5.000000e+000  2.500000e+001
      vertex -1.496000e+001  5.000000e+000  3.000000e+001
      vertex -1.666000e+001  5.000000e+000  2.500000e+001
    endloop
  endfacet
  facet normal  -0.000000e+000  1.000000e+000  0.000000e+000
    outer loop
      vertex -1.666000e+001  5.000000e+000  2.500000e+001
      vertex -1.496000e+001  5.000000e+000  3.000000e+001
      vertex -1.496000e+001  5.000000e+000 -3.000000e+001
    endloop
  endfacet
  facet normal  0.000000e+000  1.000000e+000  0.000000e+000
    outer loop
      vertex -1.666000e+001  5.000000e+000  2.500000e+001
      vertex -1.496000e+001  5.000000e+000 -3.000000e+001
      vertex -1.666000e+001  5.000000e+000 -2.500000e+001
    endloop
  endfacet
  facet normal  0.000000e+000  1.000000e+000  0.000000e+000
    outer loop
      vertex  1.496000e+001  5.000000e+000  3.000000e+001
      vertex  1.666000e+001  5.000000e+000 -2.500000e+001
      vertex  1.496000e+001  5.000000e+000 -3.000000e+001
    endloop
  endfacet
  facet normal  0.000000e+000  1.000000e+000  0.000000e+000
    outer loop
      vertex  1.496000e+001  5.000000e+000 -3.000000e+001
      vertex  1.666000e+001  5.000000e+000 -2.500000e+001
      vertex  1.826000e+001  5.000000e+000 -2.500000e+001
    endloop
  endfacet
  facet normal  0.000000e+000  1.000000e+000  0.000000e+000
    outer loop
      vertex  1.496000e+001  5.000000e+000 -3.000000e+001
      vertex  1.826000e+001  5.000000e+000 -2.500000e+001
      vertex  1.996000e+001  5.000000e+000 -3.000000e+001
    endloop
  endfacet
  facet normal  0.000000e+000  1.000000e+000  0.000000e+000
    outer loop
      vertex  1.666000e+001  5.000000e+000 -2.500000e+001
      vertex  1.496000e+001  5.000000e+000  3.000000e+001
      vertex  1.666000e+001  5.000000e+000  2.500000e+001
    endloop
  endfacet
  facet normal  0.000000e+000  1.000000e+000  -0.000000e+000
    outer loop
      vertex  1.666000e+001  5.000000e+000  2.500000e+001
      vertex  1.496000e+001  5.000000e+000  3.000000e+001
      vertex  1.996000e+001  5.000000e+000  3.000000e+001
    endloop
  endfacet
  facet normal  0.000000e+000  1.000000e+000  0.000000e+000
    outer loop
      vertex  1.666000e+001  5.000000e+000  2.500000e+001
      vertex  1.996000e+001  5.000000e+000  3.000000e+001
      vertex  1.826000e+001  5.000000e+000  2.500000e+001
    endloop
  endfacet
  facet normal  -0.000000e+000  1.000000e+000  0.000000e+000
    outer loop
      vertex  1.826000e+001  5.000000e+000  2.500000e+001
      vertex  1.996000e+001  5.000000e+000  3.000000e+001
      vertex  1.996000e+001  5.000000e+000 -3.000000e+001
    endloop
  endfacet
  facet normal  0.000000e+000  1.000000e+000  0.000000e+000
    outer loop
      vertex  1.826000e+001  5.000000e+000  2.500000e+001
      vertex  1.996000e+001  5.000000e+000 -3.000000e+001
      vertex  1.826000e+001  5.000000e+000 -2.500000e+001
    endloop
  endfacet
  facet normal -1.000000e+000  0.000000e+000  0.000000e+000
    outer loop
      vertex  1.826000e+001  4.200000e+000 -2.500000e+001
      vertex  1.826000e+001  4.200000e+000  2.500000e+001
      vertex  1.826000e+001  5.000000e+000 -2.500000e+001
    endloop
  endfacet
  facet normal -1.000000e+000  0.000000e+000  0.000000e+000
    outer loop
      vertex  1.826000e+001  5.000000e+000 -2.500000e+001
      vertex  1.826000e+001  4.200000e+000  2.500000e+001
      vertex  1.826000e+001  5.000000e+000  2.500000e+001
    endloop
  endfacet
  facet normal  0.000000e+000  0.000000e+000  1.000000e+000
    outer loop
      vertex  1.826000e+001  4.200000e+000 -2.500000e+001
      vertex  1.826000e+001  5.000000e+000 -2.500000e+001
      vertex  1.666000e+001  4.200000e+000 -2.500000e+001
    endloop
  endfacet
  facet normal  0.000000e+000  0.000000e+000  1.000000e+000
    outer loop
      vertex  1.666000e+001  4.200000e+000 -2.500000e+001
      vertex  1.826000e+001  5.000000e+000 -2.500000e+001
      vertex  1.666000e+001  5.000000e+000 -2.500000e+001
    endloop
  endfacet
  facet normal  1.000000e+000  0.000000e+000  0.000000e+000
    outer loop
      vertex  1.666000e+001  4.200000e+000  2.500000e+001
      vertex  1.666000e+001  4.200000e+000 -2.500000e+001
      vertex  1.666000e+001  5.000000e+000  2.500000e+001
    endloop
  endfacet
  facet normal  1.000000e+000  0.000000e+000  0.000000e+000
    outer loop
      vertex  1.666000e+001  5.000000e+000  2.500000e+001
      vertex  1.666000e+001  4.200000e+000 -2.500000e+001
      vertex  1.666000e+001  5.000000e+000 -2.500000e+001
    endloop
  endfacet
  facet normal  0.000000e+000  0.000000e+000 -1.000000e+000
    outer loop
      vertex  1.666000e+001  4.200000e+000  2.500000e+001
      vertex  1.666000e+001  5.000000e+000  2.500000e+001
      vertex  1.826000e+001  4.200000e+000  2.500000e+001
    endloop
  endfacet
  facet normal  0.000000e+000  0.000000e+000 -1.000000e+000
    outer loop
      vertex  1.826000e+001  4.200000e+000  2.500000e+001
      vertex  1.666000e+001  5.000000e+000  2.500000e+001
      vertex  1.826000e+001  5.000000e+000  2.500000e+001
    endloop
  endfacet
  facet normal -1.000000e+000  -0.000000e+000  0.000000e+000
    outer loop
      vertex -1.666000e+001  4.200000e+000  2.500000e+001
      vertex -1.666000e+001  5.000000e+000  2.500000e+001
      vertex -1.666000e+001  4.200000e+000 -2.500000e+001
    endloop
  endfacet
  facet normal -1.000000e+000  0.000000e+000  0.000000e+000
    outer loop
      vertex -1.666000e+001  4.200000e+000 -2.500000e+001
      vertex -1.666000e+001  5.000000e+000  2.500000e+001
      vertex -1.666000e+001  5.000000e+000 -2.500000e+001
    endloop
  endfacet
  facet normal  0.000000e+000  0.000000e+000  1.000000e+000
    outer loop
      vertex -1.666000e+001  4.200000e+000 -2.500000e+001
      vertex -1.666000e+001  5.000000e+000 -2.500000e+001
      vertex -1.826000e+001  4.200000e+000 -2.500000e+001
    endloop
  endfacet
  facet normal  0.000000e+000  0.000000e+000  1.000000e+000
    outer loop
      vertex -1.826000e+001  4.200000e+000 -2.500000e+001
      vertex -1.666000e+001  5.000000e+000 -2.500000e+001
      vertex -1.826000e+001  5.000000e+000 -2.500000e+001
    endloop
  endfacet
  facet normal  1.000000e+000  0.000000e+000  0.000000e+000
    outer loop
      vertex -1.826000e+001  4.200000e+000 -2.500000e+001
      vertex -1.826000e+001  5.000000e+000 -2.500000e+001
      vertex -1.826000e+001  4.200000e+000  2.500000e+001
    endloop
  endfacet
  facet normal  1.000000e+000  -0.000000e+000  0.000000e+000
    outer loop
      vertex -1.826000e+001  4.200000e+000  2.500000e+001
      vertex -1.826000e+001  5.000000e+000 -2.500000e+001
      vertex -1.826000e+001  5.000000e+000  2.500000e+001
    endloop
  endfacet
  facet normal  0.000000e+000  0.000000e+000 -1.000000e+000
    outer loop
      vertex -1.826000e+001  4.200000e+000  2.500000e+001
      vertex -1.826000e+001  5.000000e+000  2.500000e+001
      vertex -1.666000e+001  4.200000e+000  2.500000e+001
    endloop
  endfacet
  facet normal  0.000000e+000  0.000000e+000 -1.000000e+000
    outer loop
      vertex -1.666000e+001  4.200000e+000  2.500000e+001
      vertex -1.826000e+001  5.000000e+000  2.500000e+001
      vertex -1.666000e+001  5.000000e+000  2.500000e+001
    endloop
  endfacet
  facet normal  0.000000e+000  1.000000e+000  0.000000e+000
    outer loop
      vertex  1.666000e+001  4.200000e+000 -2.500000e+001
      vertex  1.666000e+001  4.200000e+000  2.500000e+001
      vertex  1.826000e+001  4.200000e+000 -2.500000e+001
    endloop
  endfacet
  facet normal  0.000000e+000  1.000000e+000  -0.000000e+000
    outer loop
      vertex  1.826000e+001  4.200000e+000 -2.500000e+001
      vertex  1.666000e+001  4.200000e+000  2.500000e+001
      vertex  1.826000e+001  4.200000e+000  2.500000e+001
    endloop
  endfacet
  facet normal  0.000000e+000  1.000000e+000  0.000000e+000
    outer loop
      vertex -1.826000e+001  4.200000e+000 -2.500000e+001
      vertex -1.826000e+001  4.200000e+000  2.500000e+001
      vertex -1.666000e+001  4.200000e+000 -2.500000e+001
    endloop
  endfacet
  facet normal  0.000000e+000  1.000000e+000  -0.000000e+000
    outer loop
      vertex -1.666000e+001  4.200000e+000 -2.500000e+001
      vertex -1.826000e+001  4.200000e+000  2.500000e+001
      vertex -1.666000e+001  4.200000e+000  2.500000e+001
    endloop
  endfacet
  facet normal  0.000000e+000  1.000000e+000  0.000000e+000
    outer loop
      vertex  7.038488e-001  2.400000e+001  2.398874e+000
      vertex  1.953542e+000  2.400000e+001  1.107909e+001
      vertex  5.625000e+000  2.400000e+001  9.742785e+000
    endloop
  endfacet
  facet normal  0.000000e+000  1.000000e+000  -0.000000e+000
    outer loop
      vertex -7.038488e-001  2.400000e+001 -2.398874e+000
      vertex -1.953542e+000  2.400000e+001 -1.107909e+001
      vertex -5.625000e+000  2.400000e+001 -9.742785e+000
    endloop
  endfacet
  facet normal  0.000000e+000  1.000000e+000  -0.000000e+000
    outer loop
      vertex -7.038488e-001  2.400000e+001 -2.398874e+000
      vertex -5.625000e+000  2.400000e+001 -9.742785e+000
      vertex -8.618000e+000  2.400000e+001 -7.231360e+000
    endloop
  endfacet
  facet normal  0.000000e+000  1.000000e+000  -0.000000e+000
    outer loop
      vertex -7.038488e-001  2.400000e+001 -2.398874e+000
      vertex -8.618000e+000  2.400000e+001 -7.231360e+000
      vertex -1.057154e+001  2.400000e+001 -3.847727e+000
    endloop
  endfacet
  facet normal  0.000000e+000  9.999999e-001  0.000000e+000
    outer loop
      vertex -7.038488e-001  2.400000e+001 -2.398874e+000
      vertex -1.057154e+001  2.400000e+001 -3.847727e+000
      vertex -2.193956e+000  2.400000e+001 -1.198564e+000
    endloop
  endfacet
  facet normal  0.000000e+000  1.000000e+000  0.000000e+000
    outer loop
      vertex -1.953542e+000  2.400000e+001 -1.107909e+001
      vertex -7.038488e-001  2.400000e+001 -2.398874e+000
      vertex  1.953542e+000  2.400000e+001 -1.107909e+001
    endloop
  endfacet
  facet normal  0.000000e+000  1.000000e+000  0.000000e+000
    outer loop
      vertex  1.953542e+000  2.400000e+001 -1.107909e+001
      vertex -7.038488e-001  2.400000e+001 -2.398874e+000
      vertex  1.198564e+000  2.400000e+001 -2.193956e+000
    endloop
  endfacet
  facet normal  0.000000e+000  1.000000e+000  0.000000e+000
    outer loop
      vertex  1.953542e+000  2.400000e+001 -1.107909e+001
      vertex  1.198564e+000  2.400000e+001 -2.193956e+000
      vertex  5.625000e+000  2.400000e+001 -9.742785e+000
    endloop
  endfacet
  facet normal  0.000000e+000  9.999999e-001  -0.000000e+000
    outer loop
      vertex  5.625000e+000  2.400000e+001 -9.742785e+000
      vertex  1.198564e+000  2.400000e+001 -2.193956e+000
      vertex  1.057154e+001  2.400000e+001 -3.847727e+000
    endloop
  endfacet
  facet normal  0.000000e+000  1.000000e+000  0.000000e+000
    outer loop
      vertex  5.625000e+000  2.400000e+001 -9.742785e+000
      vertex  1.057154e+001  2.400000e+001 -3.847727e+000
      vertex  8.618000e+000  2.400000e+001 -7.231360e+000
    endloop
  endfacet
  facet normal  0.000000e+000  1.000000e+000  -0.000000e+000
    outer loop
      vertex  1.953542e+000  2.400000e+001  1.107909e+001
      vertex  7.038488e-001  2.400000e+001  2.398874e+000
      vertex -1.953542e+000  2.400000e+001  1.107909e+001
    endloop
  endfacet
  facet normal  0.000000e+000  1.000000e+000  0.000000e+000
    outer loop
      vertex -1.953542e+000  2.400000e+001  1.107909e+001
      vertex  7.038488e-001  2.400000e+001  2.398874e+000
      vertex -1.198564e+000  2.400000e+001  2.193956e+000
    endloop
  endfacet
  facet normal  0.000000e+000  1.000000e+000  0.000000e+000
    outer loop
      vertex -1.953542e+000  2.400000e+001  1.107909e+001
      vertex -1.198564e+000  2.400000e+001  2.193956e+000
      vertex -5.625000e+000  2.400000e+001  9.742785e+000
    endloop
  endfacet
  facet normal  0.000000e+000  1.000000e+000  0.000000e+000
    outer loop
      vertex -2.193956e+000  2.400000e+001 -1.198564e+000
      vertex -1.057154e+001  2.400000e+001 -3.847727e+000
      vertex -2.398874e+000  2.400000e+001  7.038488e-001
    endloop
  endfacet
  facet normal  0.000000e+000  1.000000e+000  0.000000e+000
    outer loop
      vertex -2.398874e+000  2.400000e+001  7.038488e-001
      vertex -1.057154e+001  2.400000e+001 -3.847727e+000
      vertex -1.125000e+001  2.400000e+001  0.000000e+000
    endloop
  endfacet
  facet normal  0.000000e+000  1.000000e+000  0.000000e+000
    outer loop
      vertex -2.398874e+000  2.400000e+001  7.038488e-001
      vertex -1.125000e+001  2.400000e+001  0.000000e+000
      vertex -1.198564e+000  2.400000e+001  2.193956e+000
    endloop
  endfacet
  facet normal  0.000000e+000  1.000000e+000  0.000000e+000
    outer loop
      vertex -1.198564e+000  2.400000e+001  2.193956e+000
      vertex -1.125000e+001  2.400000e+001  0.000000e+000
      vertex -1.057154e+001  2.400000e+001  3.847727e+000
    endloop
  endfacet
  facet normal  -0.000000e+000  9.999999e-001  0.000000e+000
    outer loop
      vertex -1.198564e+000  2.400000e+001  2.193956e+000
      vertex -1.057154e+001  2.400000e+001  3.847727e+000
      vertex -5.625000e+000  2.400000e+001  9.742785e+000
    endloop
  endfacet
  facet normal  0.000000e+000  1.000000e+000  0.000000e+000
    outer loop
      vertex -5.625000e+000  2.400000e+001  9.742785e+000
      vertex -1.057154e+001  2.400000e+001  3.847727e+000
      vertex -8.618000e+000  2.400000e+001  7.231360e+000
    endloop
  endfacet
  facet normal  0.000000e+000  1.000000e+000  0.000000e+000
    outer loop
      vertex  5.625000e+000  2.400000e+001  9.742785e+000
      vertex  8.618000e+000  2.400000e+001  7.231360e+000
      vertex  7.038488e-001  2.400000e+001  2.398874e+000
    endloop
  endfacet
  facet normal  0.000000e+000  1.000000e+000  0.000000e+000
    outer loop
      vertex  7.038488e-001  2.400000e+001  2.398874e+000
      vertex  8.618000e+000  2.400000e+001  7.231360e+000
      vertex  1.057154e+001  2.400000e+001  3.847727e+000
    endloop
  endfacet
  facet normal  0.000000e+000  9.999999e-001  0.000000e+000
    outer loop
      vertex  7.038488e-001  2.400000e+001  2.398874e+000
      vertex  1.057154e+001  2.400000e+001  3.847727e+000
      vertex  2.193956e+000  2.400000e+001  1.198564e+000
    endloop
  endfacet
  facet normal  -0.000000e+000  1.000000e+000  0.000000e+000
    outer loop
      vertex  2.193956e+000  2.400000e+001  1.198564e+000
      vertex  1.057154e+001  2.400000e+001  3.847727e+000
      vertex  1.125000e+001  2.400000e+001  1.377682e-015
    endloop
  endfacet
  facet normal  0.000000e+000  1.000000e+000  0.000000e+000
    outer loop
      vertex  2.193956e+000  2.400000e+001  1.198564e+000
      vertex  1.125000e+001  2.400000e+001  1.377682e-015
      vertex  2.398874e+000  2.400000e+001 -7.038488e-001
    endloop
  endfacet
  facet normal  -0.000000e+000  1.000000e+000  0.000000e+000
    outer loop
      vertex  1.057154e+001  2.400000e+001 -3.847727e+000
      vertex  1.198564e+000  2.400000e+001 -2.193956e+000
      vertex  1.125000e+001  2.400000e+001  1.377682e-015
    endloop
  endfacet
  facet normal  0.000000e+000  1.000000e+000  0.000000e+000
    outer loop
      vertex  1.125000e+001  2.400000e+001  1.377682e-015
      vertex  1.198564e+000  2.400000e+001 -2.193956e+000
      vertex  2.398874e+000  2.400000e+001 -7.038488e-001
    endloop
  endfacet
  facet normal  0.000000e+000 -1.000000e+000  0.000000e+000
    outer loop
      vertex  1.198564e+000  2.200000e+001 -2.193956e+000
      vertex -7.038488e-001  2.200000e+001 -2.398874e+000
      vertex -1.712918e-015  2.200000e+001 -9.325000e+000
    endloop
  endfacet
  facet normal  0.000000e+000 -1.000000e+000  0.000000e+000
    outer loop
      vertex -8.615176e+000  2.200000e+001  3.568523e+000
      vertex -3.568523e+000  2.200000e+001  8.615176e+000
      vertex -6.593771e+000  2.200000e+001  6.593771e+000
    endloop
  endfacet
  facet normal  0.000000e+000 -1.000000e+000  0.000000e+000
    outer loop
      vertex -2.193956e+000  2.200000e+001 -1.198564e+000
      vertex -8.615176e+000  2.200000e+001 -3.568523e+000
      vertex -7.038488e-001  2.200000e+001 -2.398874e+000
    endloop
  endfacet
  facet normal  0.000000e+000 -1.000000e+000  0.000000e+000
    outer loop
      vertex  2.193956e+000  2.200000e+001  1.198564e+000
      vertex  2.398874e+000  2.200000e+001 -7.038488e-001
      vertex  9.325000e+000  2.200000e+001  0.000000e+000
    endloop
  endfacet
  facet normal  0.000000e+000 -1.000000e+000  0.000000e+000
    outer loop
      vertex  7.038488e-001  2.200000e+001  2.398874e+000
      vertex  2.193956e+000  2.200000e+001  1.198564e+000
      vertex  9.325000e+000  2.200000e+001  0.000000e+000
    endloop
  endfacet
  facet normal  0.000000e+000 -1.000000e+000  0.000000e+000
    outer loop
      vertex  7.038488e-001  2.200000e+001  2.398874e+000
      vertex  9.325000e+000  2.200000e+001  0.000000e+000
      vertex  8.615176e+000  2.200000e+001  3.568523e+000
    endloop
  endfacet
  facet normal  -0.000000e+000 -9.999999e-001  0.000000e+000
    outer loop
      vertex  7.038488e-001  2.200000e+001  2.398874e+000
      vertex  8.615176e+000  2.200000e+001  3.568523e+000
      vertex  6.593771e+000  2.200000e+001  6.593771e+000
    endloop
  endfacet
  facet normal  -0.000000e+000 -1.000000e+000  0.000000e+000
    outer loop
      vertex  7.038488e-001  2.200000e+001  2.398874e+000
      vertex  6.593771e+000  2.200000e+001  6.593771e+000
      vertex  3.568523e+000  2.200000e+001  8.615176e+000
    endloop
  endfacet
  facet normal  -0.000000e+000 -1.000000e+000  0.000000e+000
    outer loop
      vertex  7.038488e-001  2.200000e+001  2.398874e+000
      vertex  3.568523e+000  2.200000e+001  8.615176e+000
      vertex  5.709727e-016  2.200000e+001  9.325000e+000
    endloop
  endfacet
  facet normal  0.000000e+000 -1.000000e+000  -0.000000e+000
    outer loop
      vertex  7.038488e-001  2.200000e+001  2.398874e+000
      vertex  5.709727e-016  2.200000e+001  9.325000e+000
      vertex -3.568523e+000  2.200000e+001  8.615176e+000
    endloop
  endfacet
  facet normal  0.000000e+000 -1.000000e+000  0.000000e+000
    outer loop
      vertex  7.038488e-001  2.200000e+001  2.398874e+000
      vertex -3.568523e+000  2.200000e+001  8.615176e+000
      vertex -1.198564e+000  2.200000e+001  2.193956e+000
    endloop
  endfacet
  facet normal  0.000000e+000 -1.000000e+000  0.000000e+000
    outer loop
      vertex  9.325000e+000  2.200000e+001  0.000000e+000
      vertex  2.398874e+000  2.200000e+001 -7.038488e-001
      vertex  8.615176e+000  2.200000e+001 -3.568523e+000
    endloop
  endfacet
  facet normal  0.000000e+000 -1.000000e+000  0.000000e+000
    outer loop
      vertex  8.615176e+000  2.200000e+001 -3.568523e+000
      vertex  2.398874e+000  2.200000e+001 -7.038488e-001
      vertex  1.198564e+000  2.200000e+001 -2.193956e+000
    endloop
  endfacet
  facet normal  0.000000e+000 -1.000000e+000  0.000000e+000
    outer loop
      vertex  8.615176e+000  2.200000e+001 -3.568523e+000
      vertex  1.198564e+000  2.200000e+001 -2.193956e+000
      vertex  6.593771e+000  2.200000e+001 -6.593771e+000
    endloop
  endfacet
  facet normal  -0.000000e+000 -1.000000e+000  0.000000e+000
    outer loop
      vertex  6.593771e+000  2.200000e+001 -6.593771e+000
      vertex  1.198564e+000  2.200000e+001 -2.193956e+000
      vertex -1.712918e-015  2.200000e+001 -9.325000e+000
    endloop
  endfacet
  facet normal  0.000000e+000 -1.000000e+000  0.000000e+000
    outer loop
      vertex  6.593771e+000  2.200000e+001 -6.593771e+000
      vertex -1.712918e-015  2.200000e+001 -9.325000e+000
      vertex  3.568523e+000  2.200000e+001 -8.615176e+000
    endloop
  endfacet
  facet normal  -0.000000e+000 -1.000000e+000  0.000000e+000
    outer loop
      vertex -8.615176e+000  2.200000e+001 -3.568523e+000
      vertex -2.193956e+000  2.200000e+001 -1.198564e+000
      vertex -9.325000e+000  2.200000e+001  1.141945e-015
    endloop
  endfacet
  facet normal  0.000000e+000 -1.000000e+000  0.000000e+000
    outer loop
      vertex -9.325000e+000  2.200000e+001  1.141945e-015
      vertex -2.193956e+000  2.200000e+001 -1.198564e+000
      vertex -2.398874e+000  2.200000e+001  7.038488e-001
    endloop
  endfacet
  facet normal  -0.000000e+000 -1.000000e+000  0.000000e+000
    outer loop
      vertex -9.325000e+000  2.200000e+001  1.141945e-015
      vertex -2.398874e+000  2.200000e+001  7.038488e-001
      vertex -8.615176e+000  2.200000e+001  3.568523e+000
    endloop
  endfacet
  facet normal  0.000000e+000 -1.000000e+000  0.000000e+000
    outer loop
      vertex -8.615176e+000  2.200000e+001  3.568523e+000
      vertex -2.398874e+000  2.200000e+001  7.038488e-001
      vertex -1.198564e+000  2.200000e+001  2.193956e+000
    endloop
  endfacet
  facet normal  0.000000e+000 -1.000000e+000  0.000000e+000
    outer loop
      vertex -8.615176e+000  2.200000e+001  3.568523e+000
      vertex -1.198564e+000  2.200000e+001  2.193956e+000
      vertex -3.568523e+000  2.200000e+001  8.615176e+000
    endloop
  endfacet
  facet normal  0.000000e+000 -1.000000e+000  0.000000e+000
    outer loop
      vertex -7.038488e-001  2.200000e+001 -2.398874e+000
      vertex -8.615176e+000  2.200000e+001 -3.568523e+000
      vertex -1.712918e-015  2.200000e+001 -9.325000e+000
    endloop
  endfacet
  facet normal  0.000000e+000 -1.000000e+000  0.000000e+000
    outer loop
      vertex -1.712918e-015  2.200000e+001 -9.325000e+000
      vertex -8.615176e+000  2.200000e+001 -3.568523e+000
      vertex -6.593771e+000  2.200000e+001 -6.593771e+000
    endloop
  endfacet
  facet normal  0.000000e+000 -1.000000e+000  0.000000e+000
    outer loop
      vertex -1.712918e-015  2.200000e+001 -9.325000e+000
      vertex -6.593771e+000  2.200000e+001 -6.593771e+000
      vertex -3.568523e+000  2.200000e+001 -8.615176e+000
    endloop
  endfacet
  facet normal  7.787676e-001  0.000000e+000 -6.273123e-001
    outer loop
      vertex -1.198564e+000  2.400000e+001  2.193956e+000
      vertex -2.398874e+000  2.200000e+001  7.038488e-001
      vertex -2.398874e+000  2.400000e+001  7.038488e-001
    endloop
  endfacet
  facet normal  9.942487e-001  0.000000e+000  1.070951e-001
    outer loop
      vertex -2.398874e+000  2.400000e+001  7.038488e-001
      vertex -2.398874e+000  2.200000e+001  7.038488e-001
      vertex -2.193956e+000  2.200000e+001 -1.198564e+000
    endloop
  endfacet
  facet normal  9.942487e-001  -0.000000e+000  1.070951e-001
    outer loop
      vertex -2.398874e+000  2.400000e+001  7.038488e-001
      vertex -2.193956e+000  2.200000e+001 -1.198564e+000
      vertex -2.193956e+000  2.400000e+001 -1.198564e+000
    endloop
  endfacet
  facet normal  7.787676e-001  0.000000e+000 -6.273123e-001
    outer loop
      vertex -2.398874e+000  2.200000e+001  7.038488e-001
      vertex -1.198564e+000  2.400000e+001  2.193956e+000
      vertex -1.198564e+000  2.200000e+001  2.193956e+000
    endloop
  endfacet
  facet normal  1.070951e-001  0.000000e+000 -9.942487e-001
    outer loop
      vertex -1.198564e+000  2.200000e+001  2.193956e+000
      vertex -1.198564e+000  2.400000e+001  2.193956e+000
      vertex  7.038488e-001  2.400000e+001  2.398874e+000
    endloop
  endfacet
  facet normal  1.070951e-001  0.000000e+000 -9.942487e-001
    outer loop
      vertex -1.198564e+000  2.200000e+001  2.193956e+000
      vertex  7.038488e-001  2.400000e+001  2.398874e+000
      vertex  7.038488e-001  2.200000e+001  2.398874e+000
    endloop
  endfacet
  facet normal -6.273123e-001  0.000000e+000 -7.787676e-001
    outer loop
      vertex  7.038488e-001  2.200000e+001  2.398874e+000
      vertex  7.038488e-001  2.400000e+001  2.398874e+000
      vertex  2.193956e+000  2.400000e+001  1.198564e+000
    endloop
  endfacet
  facet normal -6.273123e-001  -0.000000e+000 -7.787676e-001
    outer loop
      vertex  7.038488e-001  2.200000e+001  2.398874e+000
      vertex  2.193956e+000  2.400000e+001  1.198564e+000
      vertex  2.193956e+000  2.200000e+001  1.198564e+000
    endloop
  endfacet
  facet normal -7.787676e-001  0.000000e+000  6.273123e-001
    outer loop
      vertex  1.198564e+000  2.400000e+001 -2.193956e+000
      vertex  2.398874e+000  2.200000e+001 -7.038488e-001
      vertex  2.398874e+000  2.400000e+001 -7.038488e-001
    endloop
  endfacet
  facet normal -9.942487e-001  -0.000000e+000 -1.070951e-001
    outer loop
      vertex  2.398874e+000  2.400000e+001 -7.038488e-001
      vertex  2.398874e+000  2.200000e+001 -7.038488e-001
      vertex  2.193956e+000  2.200000e+001  1.198564e+000
    endloop
  endfacet
  facet normal -9.942487e-001  0.000000e+000 -1.070951e-001
    outer loop
      vertex  2.398874e+000  2.400000e+001 -7.038488e-001
      vertex  2.193956e+000  2.200000e+001  1.198564e+000
      vertex  2.193956e+000  2.400000e+001  1.198564e+000
    endloop
  endfacet
  facet normal -7.787676e-001  0.000000e+000  6.273123e-001
    outer loop
      vertex  2.398874e+000  2.200000e+001 -7.038488e-001
      vertex  1.198564e+000  2.400000e+001 -2.193956e+000
      vertex  1.198564e+000  2.200000e+001 -2.193956e+000
    endloop
  endfacet
  facet normal -1.070951e-001  0.000000e+000  9.942487e-001
    outer loop
      vertex  1.198564e+000  2.200000e+001 -2.193956e+000
      vertex  1.198564e+000  2.400000e+001 -2.193956e+000
      vertex -7.038488e-001  2.400000e+001 -2.398874e+000
    endloop
  endfacet
  facet normal -1.070951e-001  0.000000e+000  9.942487e-001
    outer loop
      vertex  1.198564e+000  2.200000e+001 -2.193956e+000
      vertex -7.038488e-001  2.400000e+001 -2.398874e+000
      vertex -7.038488e-001  2.200000e+001 -2.398874e+000
    endloop
  endfacet
  facet normal  6.273123e-001  -0.000000e+000  7.787676e-001
    outer loop
      vertex -7.038488e-001  2.200000e+001 -2.398874e+000
      vertex -7.038488e-001  2.400000e+001 -2.398874e+000
      vertex -2.193956e+000  2.400000e+001 -1.198564e+000
    endloop
  endfacet
  facet normal  6.273123e-001  0.000000e+000  7.787676e-001
    outer loop
      vertex -7.038488e-001  2.200000e+001 -2.398874e+000
      vertex -2.193956e+000  2.400000e+001 -1.198564e+000
      vertex -2.193956e+000  2.200000e+001 -1.198564e+000
    endloop
  endfacet
  facet normal  0.000000e+000 -1.000000e+000  0.000000e+000
    outer loop
      vertex  1.996000e+001 -5.000000e+000  3.000000e+001
      vertex -1.996000e+001 -5.000000e+000  3.000000e+001
      vertex  5.709727e-016 -5.000000e+000  9.325000e+000
    endloop
  endfacet
  facet normal  0.000000e+000 -1.000000e+000  0.000000e+000
    outer loop
      vertex  1.996000e+001 -5.000000e+000  3.000000e+001
      vertex  5.709727e-016 -5.000000e+000  9.325000e+000
      vertex  3.568523e+000 -5.000000e+000  8.615176e+000
    endloop
  endfacet
  facet normal  0.000000e+000 -9.999999e-001  0.000000e+000
    outer loop
      vertex  1.996000e+001 -5.000000e+000  3.000000e+001
      vertex  3.568523e+000 -5.000000e+000  8.615176e+000
      vertex  6.593771e+000 -5.000000e+000  6.593771e+000
    endloop
  endfacet
  facet normal  0.000000e+000 -1.000000e+000  0.000000e+000
    outer loop
      vertex  1.996000e+001 -5.000000e+000  3.000000e+001
      vertex  6.593771e+000 -5.000000e+000  6.593771e+000
      vertex  8.615176e+000 -5.000000e+000  3.568523e+000
    endloop
  endfacet
  facet normal  0.000000e+000 -1.000000e+000  0.000000e+000
    outer loop
      vertex  1.996000e+001 -5.000000e+000  3.000000e+001
      vertex  8.615176e+000 -5.000000e+000  3.568523e+000
      vertex  1.996000e+001 -5.000000e+000 -3.000000e+001
    endloop
  endfacet
  facet normal  0.000000e+000 -1.000000e+000  0.000000e+000
    outer loop
      vertex  1.996000e+001 -5.000000e+000 -3.000000e+001
      vertex  8.615176e+000 -5.000000e+000  3.568523e+000
      vertex  9.325000e+000 -5.000000e+000  0.000000e+000
    endloop
  endfacet
  facet normal  0.000000e+000 -1.000000e+000  -0.000000e+000
    outer loop
      vertex  1.996000e+001 -5.000000e+000 -3.000000e+001
      vertex  9.325000e+000 -5.000000e+000  0.000000e+000
      vertex  8.615176e+000 -5.000000e+000 -3.568523e+000
    endloop
  endfacet
  facet normal  0.000000e+000 -1.000000e+000  -0.000000e+000
    outer loop
      vertex  1.996000e+001 -5.000000e+000 -3.000000e+001
      vertex  8.615176e+000 -5.000000e+000 -3.568523e+000
      vertex  6.593771e+000 -5.000000e+000 -6.593771e+000
    endloop
  endfacet
  facet normal  0.000000e+000 -9.999999e-001  -0.000000e+000
    outer loop
      vertex  1.996000e+001 -5.000000e+000 -3.000000e+001
      vertex  6.593771e+000 -5.000000e+000 -6.593771e+000
      vertex  3.568523e+000 -5.000000e+000 -8.615176e+000
    endloop
  endfacet
  facet normal  0.000000e+000 -1.000000e+000  -0.000000e+000
    outer loop
      vertex  1.996000e+001 -5.000000e+000 -3.000000e+001
      vertex  3.568523e+000 -5.000000e+000 -8.615176e+000
      vertex -1.712918e-015 -5.000000e+000 -9.325000e+000
    endloop
  endfacet
  facet normal  0.000000e+000 -1.000000e+000  -0.000000e+000
    outer loop
      vertex  1.996000e+001 -5.000000e+000 -3.000000e+001
      vertex -1.712918e-015 -5.000000e+000 -9.325000e+000
      vertex -1.996000e+001 -5.000000e+000 -3.000000e+001
    endloop
  endfacet
  facet normal  -0.000000e+000 -1.000000e+000  0.000000e+000
    outer loop
      vertex -1.996000e+001 -5.000000e+000 -3.000000e+001
      vertex -1.712918e-015 -5.000000e+000 -9.325000e+000
      vertex -3.568523e+000 -5.000000e+000 -8.615176e+000
    endloop
  endfacet
  facet normal  -0.000000e+000 -9.999999e-001  0.000000e+000
    outer loop
      vertex -1.996000e+001 -5.000000e+000 -3.000000e+001
      vertex -3.568523e+000 -5.000000e+000 -8.615176e+000
      vertex -6.593771e+000 -5.000000e+000 -6.593771e+000
    endloop
  endfacet
  facet normal  -0.000000e+000 -1.000000e+000  0.000000e+000
    outer loop
      vertex -1.996000e+001 -5.000000e+000 -3.000000e+001
      vertex -6.593771e+000 -5.000000e+000 -6.593771e+000
      vertex -8.615176e+000 -5.000000e+000 -3.568523e+000
    endloop
  endfacet
  facet normal  -0.000000e+000 -1.000000e+000  0.000000e+000
    outer loop
      vertex -1.996000e+001 -5.000000e+000 -3.000000e+001
      vertex -8.615176e+000 -5.000000e+000 -3.568523e+000
      vertex -9.325000e+000 -5.000000e+000  1.141945e-015
    endloop
  endfacet
  facet normal  -0.000000e+000 -1.000000e+000  0.000000e+000
    outer loop
      vertex -1.996000e+001 -5.000000e+000 -3.000000e+001
      vertex -9.325000e+000 -5.000000e+000  1.141945e-015
      vertex -8.615176e+000 -5.000000e+000  3.568523e+000
    endloop
  endfacet
  facet normal  0.000000e+000 -1.000000e+000  0.000000e+000
    outer loop
      vertex -1.996000e+001 -5.000000e+000  3.000000e+001
      vertex -1.996000e+001 -5.000000e+000 -3.000000e+001
      vertex -8.615176e+000 -5.000000e+000  3.568523e+000
    endloop
  endfacet
  facet normal  0.000000e+000 -1.000000e+000  0.000000e+000
    outer loop
      vertex -1.996000e+001 -5.000000e+000  3.000000e+001
      vertex -8.615176e+000 -5.000000e+000  3.568523e+000
      vertex -6.593771e+000 -5.000000e+000  6.593771e+000
    endloop
  endfacet
  facet normal  0.000000e+000 -9.999999e-001  0.000000e+000
    outer loop
      vertex -1.996000e+001 -5.000000e+000  3.000000e+001
      vertex -6.593771e+000 -5.000000e+000  6.593771e+000
      vertex -3.568523e+000 -5.000000e+000  8.615176e+000
    endloop
  endfacet
  facet normal  0.000000e+000 -1.000000e+000  0.000000e+000
    outer loop
      vertex -1.996000e+001 -5.000000e+000  3.000000e+001
      vertex -3.568523e+000 -5.000000e+000  8.615176e+000
      vertex  5.709727e-016 -5.000000e+000  9.325000e+000
    endloop
  endfacet
  facet normal -1.950904e-001  0.000000e+000  9.807853e-001
    outer loop
      vertex -1.712918e-015  2.200000e+001 -9.325000e+000
      vertex  3.568523e+000 -5.000000e+000 -8.615176e+000
      vertex  3.568523e+000  2.200000e+001 -8.615176e+000
    endloop
  endfacet
  facet normal -5.555702e-001  0.000000e+000  8.314696e-001
    outer loop
      vertex  3.568523e+000  2.200000e+001 -8.615176e+000
      vertex  3.568523e+000 -5.000000e+000 -8.615176e+000
      vertex  6.593771e+000 -5.000000e+000 -6.593771e+000
    endloop
  endfacet
  facet normal -5.555702e-001  0.000000e+000  8.314696e-001
    outer loop
      vertex  3.568523e+000  2.200000e+001 -8.615176e+000
      vertex  6.593771e+000 -5.000000e+000 -6.593771e+000
      vertex  6.593771e+000  2.200000e+001 -6.593771e+000
    endloop
  endfacet
  facet normal -8.314696e-001  0.000000e+000  5.555702e-001
    outer loop
      vertex  6.593771e+000  2.200000e+001 -6.593771e+000
      vertex  6.593771e+000 -5.000000e+000 -6.593771e+000
      vertex  8.615176e+000 -5.000000e+000 -3.568523e+000
    endloop
  endfacet
  facet normal -8.314696e-001  0.000000e+000  5.555702e-001
    outer loop
      vertex  6.593771e+000  2.200000e+001 -6.593771e+000
      vertex  8.615176e+000 -5.000000e+000 -3.568523e+000
      vertex  8.615176e+000  2.200000e+001 -3.568523e+000
    endloop
  endfacet
  facet normal -9.807853e-001  0.000000e+000  1.950904e-001
    outer loop
      vertex  8.615176e+000  2.200000e+001 -3.568523e+000
      vertex  8.615176e+000 -5.000000e+000 -3.568523e+000
      vertex  9.325000e+000 -5.000000e+000  0.000000e+000
    endloop
  endfacet
  facet normal -9.807853e-001  0.000000e+000  1.950904e-001
    outer loop
      vertex  8.615176e+000  2.200000e+001 -3.568523e+000
      vertex  9.325000e+000 -5.000000e+000  0.000000e+000
      vertex  9.325000e+000  2.200000e+001  0.000000e+000
    endloop
  endfacet
  facet normal -1.950904e-001  0.000000e+000  9.807853e-001
    outer loop
      vertex  3.568523e+000 -5.000000e+000 -8.615176e+000
      vertex -1.712918e-015  2.200000e+001 -9.325000e+000
      vertex -1.712918e-015 -5.000000e+000 -9.325000e+000
    endloop
  endfacet
  facet normal  1.950904e-001  -0.000000e+000  9.807853e-001
    outer loop
      vertex -1.712918e-015 -5.000000e+000 -9.325000e+000
      vertex -1.712918e-015  2.200000e+001 -9.325000e+000
      vertex -3.568523e+000  2.200000e+001 -8.615176e+000
    endloop
  endfacet
  facet normal  1.950904e-001  0.000000e+000  9.807853e-001
    outer loop
      vertex -1.712918e-015 -5.000000e+000 -9.325000e+000
      vertex -3.568523e+000  2.200000e+001 -8.615176e+000
      vertex -3.568523e+000 -5.000000e+000 -8.615176e+000
    endloop
  endfacet
  facet normal  5.555702e-001  -0.000000e+000  8.314696e-001
    outer loop
      vertex -3.568523e+000 -5.000000e+000 -8.615176e+000
      vertex -3.568523e+000  2.200000e+001 -8.615176e+000
      vertex -6.593771e+000  2.200000e+001 -6.593771e+000
    endloop
  endfacet
  facet normal  5.555702e-001  0.000000e+000  8.314696e-001
    outer loop
      vertex -3.568523e+000 -5.000000e+000 -8.615176e+000
      vertex -6.593771e+000  2.200000e+001 -6.593771e+000
      vertex -6.593771e+000 -5.000000e+000 -6.593771e+000
    endloop
  endfacet
  facet normal  8.314696e-001  -0.000000e+000  5.555702e-001
    outer loop
      vertex -6.593771e+000 -5.000000e+000 -6.593771e+000
      vertex -6.593771e+000  2.200000e+001 -6.593771e+000
      vertex -8.615176e+000  2.200000e+001 -3.568523e+000
    endloop
  endfacet
  facet normal  8.314696e-001  0.000000e+000  5.555702e-001
    outer loop
      vertex -6.593771e+000 -5.000000e+000 -6.593771e+000
      vertex -8.615176e+000  2.200000e+001 -3.568523e+000
      vertex -8.615176e+000 -5.000000e+000 -3.568523e+000
    endloop
  endfacet
  facet normal  9.807853e-001  -0.000000e+000  1.950904e-001
    outer loop
      vertex -8.615176e+000 -5.000000e+000 -3.568523e+000
      vertex -8.615176e+000  2.200000e+001 -3.568523e+000
      vertex -9.325000e+000  2.200000e+001  1.141945e-015
    endloop
  endfacet
  facet normal  9.807853e-001  0.000000e+000  1.950904e-001
    outer loop
      vertex -8.615176e+000 -5.000000e+000 -3.568523e+000
      vertex -9.325000e+000  2.200000e+001  1.141945e-015
      vertex -9.325000e+000 -5.000000e+000  1.141945e-015
    endloop
  endfacet
  facet normal  1.950904e-001  0.000000e+000 -9.807853e-001
    outer loop
      vertex  5.709727e-016  2.200000e+001  9.325000e+000
      vertex -3.568523e+000 -5.000000e+000  8.615176e+000
      vertex -3.568523e+000  2.200000e+001  8.615176e+000
    endloop
  endfacet
  facet normal  5.555702e-001  0.000000e+000 -8.314696e-001
    outer loop
      vertex -3.568523e+000  2.200000e+001  8.615176e+000
      vertex -3.568523e+000 -5.000000e+000  8.615176e+000
      vertex -6.593771e+000 -5.000000e+000  6.593771e+000
    endloop
  endfacet
  facet normal  5.555702e-001  0.000000e+000 -8.314696e-001
    outer loop
      vertex -3.568523e+000  2.200000e+001  8.615176e+000
      vertex -6.593771e+000 -5.000000e+000  6.593771e+000
      vertex -6.593771e+000  2.200000e+001  6.593771e+000
    endloop
  endfacet
  facet normal  8.314696e-001  0.000000e+000 -5.555702e-001
    outer loop
      vertex -6.593771e+000  2.200000e+001  6.593771e+000
      vertex -6.593771e+000 -5.000000e+000  6.593771e+000
      vertex -8.615176e+000 -5.000000e+000  3.568523e+000
    endloop
  endfacet
  facet normal  8.314696e-001  0.000000e+000 -5.555702e-001
    outer loop
      vertex -6.593771e+000  2.200000e+001  6.593771e+000
      vertex -8.615176e+000 -5.000000e+000  3.568523e+000
      vertex -8.615176e+000  2.200000e+001  3.568523e+000
    endloop
  endfacet
  facet normal  9.807853e-001  0.000000e+000 -1.950904e-001
    outer loop
      vertex -8.615176e+000  2.200000e+001  3.568523e+000
      vertex -8.615176e+000 -5.000000e+000  3.568523e+000
      vertex -9.325000e+000 -5.000000e+000  1.141945e-015
    endloop
  endfacet
  facet normal  9.807853e-001  0.000000e+000 -1.950904e-001
    outer loop
      vertex -8.615176e+000  2.200000e+001  3.568523e+000
      vertex -9.325000e+000 -5.000000e+000  1.141945e-015
      vertex -9.325000e+000  2.200000e+001  1.141945e-015
    endloop
  endfacet
  facet normal  1.950904e-001  0.000000e+000 -9.807853e-001
    outer loop
      vertex -3.568523e+000 -5.000000e+000  8.615176e+000
      vertex  5.709727e-016  2.200000e+001  9.325000e+000
      vertex  5.709727e-016 -5.000000e+000  9.325000e+000
    endloop
  endfacet
  facet normal -1.950904e-001  0.000000e+000 -9.807853e-001
    outer loop
      vertex  5.709727e-016 -5.000000e+000  9.325000e+000
      vertex  5.709727e-016  2.200000e+001  9.325000e+000
      vertex  3.568523e+000  2.200000e+001  8.615176e+000
    endloop
  endfacet
  facet normal -1.950904e-001  -0.000000e+000 -9.807853e-001
    outer loop
      vertex  5.709727e-016 -5.000000e+000  9.325000e+000
      vertex  3.568523e+000  2.200000e+001  8.615176e+000
      vertex  3.568523e+000 -5.000000e+000  8.615176e+000
    endloop
  endfacet
  facet normal -5.555702e-001  0.000000e+000 -8.314696e-001
    outer loop
      vertex  3.568523e+000 -5.000000e+000  8.615176e+000
      vertex  3.568523e+000  2.200000e+001  8.615176e+000
      vertex  6.593771e+000  2.200000e+001  6.593771e+000
    endloop
  endfacet
  facet normal -5.555702e-001  -0.000000e+000 -8.314696e-001
    outer loop
      vertex  3.568523e+000 -5.000000e+000  8.615176e+000
      vertex  6.593771e+000  2.200000e+001  6.593771e+000
      vertex  6.593771e+000 -5.000000e+000  6.593771e+000
    endloop
  endfacet
  facet normal -8.314696e-001  0.000000e+000 -5.555702e-001
    outer loop
      vertex  6.593771e+000 -5.000000e+000  6.593771e+000
      vertex  6.593771e+000  2.200000e+001  6.593771e+000
      vertex  8.615176e+000  2.200000e+001  3.568523e+000
    endloop
  endfacet
  facet normal -8.314696e-001  -0.000000e+000 -5.555702e-001
    outer loop
      vertex  6.593771e+000 -5.000000e+000  6.593771e+000
      vertex  8.615176e+000  2.200000e+001  3.568523e+000
      vertex  8.615176e+000 -5.000000e+000  3.568523e+000
    endloop
  endfacet
  facet normal -9.807853e-001  0.000000e+000 -1.950904e-001
    outer loop
      vertex  8.615176e+000 -5.000000e+000  3.568523e+000
      vertex  8.615176e+000  2.200000e+001  3.568523e+000
      vertex  9.325000e+000  2.200000e+001  0.000000e+000
    endloop
  endfacet
  facet normal -9.807853e-001  -0.000000e+000 -1.950904e-001
    outer loop
      vertex  8.615176e+000 -5.000000e+000  3.568523e+000
      vertex  9.325000e+000  2.200000e+001  0.000000e+000
      vertex  9.325000e+000 -5.000000e+000  0.000000e+000
    endloop
  endfacet
  facet normal  0.000000e+000  1.000000e+000  0.000000e+000
    outer loop
      vertex -1.496000e+001  1.000000e+001  3.000000e+001
      vertex  1.496000e+001  1.000000e+001  3.000000e+001
      vertex  1.953542e+000  1.000000e+001  1.107909e+001
    endloop
  endfacet
  facet normal  0.000000e+000  1.000000e+000  0.000000e+000
    outer loop
      vertex -1.496000e+001  1.000000e+001  3.000000e+001
      vertex  1.953542e+000  1.000000e+001  1.107909e+001
      vertex -1.953542e+000  1.000000e+001  1.107909e+001
    endloop
  endfacet
  facet normal  0.000000e+000  1.000000e+000  0.000000e+000
    outer loop
      vertex -1.496000e+001  1.000000e+001  3.000000e+001
      vertex -1.953542e+000  1.000000e+001  1.107909e+001
      vertex -5.625000e+000  1.000000e+001  9.742785e+000
    endloop
  endfacet
  facet normal  0.000000e+000  1.000000e+000  0.000000e+000
    outer loop
      vertex -1.496000e+001  1.000000e+001  3.000000e+001
      vertex -5.625000e+000  1.000000e+001  9.742785e+000
      vertex -8.618000e+000  1.000000e+001  7.231360e+000
    endloop
  endfacet
  facet normal  0.000000e+000  1.000000e+000  0.000000e+000
    outer loop
      vertex -1.496000e+001  1.000000e+001  3.000000e+001
      vertex -8.618000e+000  1.000000e+001  7.231360e+000
      vertex -1.057154e+001  1.000000e+001  3.847727e+000
    endloop
  endfacet
  facet normal  0.000000e+000  1.000000e+000  0.000000e+000
    outer loop
      vertex -1.496000e+001  1.000000e+001  3.000000e+001
      vertex -1.057154e+001  1.000000e+001  3.847727e+000
      vertex -1.125000e+001  1.000000e+001  0.000000e+000
    endloop
  endfacet
  facet normal  0.000000e+000  1.000000e+000  0.000000e+000
    outer loop
      vertex -1.496000e+001  1.000000e+001  3.000000e+001
      vertex -1.125000e+001  1.000000e+001  0.000000e+000
      vertex -1.496000e+001  1.000000e+001 -3.000000e+001
    endloop
  endfacet
  facet normal  0.000000e+000  1.000000e+000  0.000000e+000
    outer loop
      vertex -1.496000e+001  1.000000e+001 -3.000000e+001
      vertex -1.125000e+001  1.000000e+001  0.000000e+000
      vertex -1.057154e+001  1.000000e+001 -3.847727e+000
    endloop
  endfacet
  facet normal  0.000000e+000  1.000000e+000  0.000000e+000
    outer loop
      vertex -1.496000e+001  1.000000e+001 -3.000000e+001
      vertex -1.057154e+001  1.000000e+001 -3.847727e+000
      vertex -8.618000e+000  1.000000e+001 -7.231360e+000
    endloop
  endfacet
  facet normal  0.000000e+000  1.000000e+000  0.000000e+000
    outer loop
      vertex -1.496000e+001  1.000000e+001 -3.000000e+001
      vertex -8.618000e+000  1.000000e+001 -7.231360e+000
      vertex -5.625000e+000  1.000000e+001 -9.742785e+000
    endloop
  endfacet
  facet normal  0.000000e+000  1.000000e+000  0.000000e+000
    outer loop
      vertex -1.496000e+001  1.000000e+001 -3.000000e+001
      vertex -5.625000e+000  1.000000e+001 -9.742785e+000
      vertex -1.953542e+000  1.000000e+001 -1.107909e+001
    endloop
  endfacet
  facet normal  -0.000000e+000  1.000000e+000  0.000000e+000
    outer loop
      vertex -1.496000e+001  1.000000e+001 -3.000000e+001
      vertex -1.953542e+000  1.000000e+001 -1.107909e+001
      vertex  1.953542e+000  1.000000e+001 -1.107909e+001
    endloop
  endfacet
  facet normal  0.000000e+000  1.000000e+000  0.000000e+000
    outer loop
      vertex -1.496000e+001  1.000000e+001 -3.000000e+001
      vertex  1.953542e+000  1.000000e+001 -1.107909e+001
      vertex  1.496000e+001  1.000000e+001 -3.000000e+001
    endloop
  endfacet
  facet normal  -0.000000e+000  1.000000e+000  0.000000e+000
    outer loop
      vertex  1.496000e+001  1.000000e+001 -3.000000e+001
      vertex  1.953542e+000  1.000000e+001 -1.107909e+001
      vertex  5.625000e+000  1.000000e+001 -9.742785e+000
    endloop
  endfacet
  facet normal  -0.000000e+000  1.000000e+000  0.000000e+000
    outer loop
      vertex  1.496000e+001  1.000000e+001 -3.000000e+001
      vertex  5.625000e+000  1.000000e+001 -9.742785e+000
      vertex  8.618000e+000  1.000000e+001 -7.231360e+000
    endloop
  endfacet
  facet normal  -0.000000e+000  1.000000e+000  0.000000e+000
    outer loop
      vertex  1.496000e+001  1.000000e+001 -3.000000e+001
      vertex  8.618000e+000  1.000000e+001 -7.231360e+000
      vertex  1.057154e+001  1.000000e+001 -3.847727e+000
    endloop
  endfacet
  facet normal  -0.000000e+000  1.000000e+000  0.000000e+000
    outer loop
      vertex  1.496000e+001  1.000000e+001 -3.000000e+001
      vertex  1.057154e+001  1.000000e+001 -3.847727e+000
      vertex  1.125000e+001  1.000000e+001  6.373686e-015
    endloop
  endfacet
  facet normal  0.000000e+000  1.000000e+000  -0.000000e+000
    outer loop
      vertex  1.496000e+001  1.000000e+001  3.000000e+001
      vertex  1.496000e+001  1.000000e+001 -3.000000e+001
      vertex  1.125000e+001  1.000000e+001  6.373686e-015
    endloop
  endfacet
  facet normal  0.000000e+000  1.000000e+000  -0.000000e+000
    outer loop
      vertex  1.496000e+001  1.000000e+001  3.000000e+001
      vertex  1.125000e+001  1.000000e+001  6.373686e-015
      vertex  1.057154e+001  1.000000e+001  3.847727e+000
    endloop
  endfacet
  facet normal  0.000000e+000  1.000000e+000  -0.000000e+000
    outer loop
      vertex  1.496000e+001  1.000000e+001  3.000000e+001
      vertex  1.057154e+001  1.000000e+001  3.847727e+000
      vertex  8.618000e+000  1.000000e+001  7.231360e+000
    endloop
  endfacet
  facet normal  0.000000e+000  1.000000e+000  -0.000000e+000
    outer loop
      vertex  1.496000e+001  1.000000e+001  3.000000e+001
      vertex  8.618000e+000  1.000000e+001  7.231360e+000
      vertex  5.625000e+000  1.000000e+001  9.742785e+000
    endloop
  endfacet
  facet normal  0.000000e+000  1.000000e+000  -0.000000e+000
    outer loop
      vertex  1.496000e+001  1.000000e+001  3.000000e+001
      vertex  5.625000e+000  1.000000e+001  9.742785e+000
      vertex  1.953542e+000  1.000000e+001  1.107909e+001
    endloop
  endfacet
  facet normal -9.848077e-001  -0.000000e+000 -1.736482e-001
    outer loop
      vertex -1.125000e+001  1.000000e+001  0.000000e+000
      vertex -1.125000e+001  2.400000e+001  0.000000e+000
      vertex -1.057154e+001  1.000000e+001 -3.847727e+000
    endloop
  endfacet
  facet normal -9.848077e-001  0.000000e+000 -1.736482e-001
    outer loop
      vertex -1.057154e+001  1.000000e+001 -3.847727e+000
      vertex -1.125000e+001  2.400000e+001  0.000000e+000
      vertex -1.057154e+001  2.400000e+001 -3.847727e+000
    endloop
  endfacet
  facet normal -8.660254e-001  -0.000000e+000 -5.000000e-001
    outer loop
      vertex -1.057154e+001  1.000000e+001 -3.847727e+000
      vertex -1.057154e+001  2.400000e+001 -3.847727e+000
      vertex -8.618000e+000  1.000000e+001 -7.231360e+000
    endloop
  endfacet
  facet normal -8.660254e-001  0.000000e+000 -5.000000e-001
    outer loop
      vertex -8.618000e+000  1.000000e+001 -7.231360e+000
      vertex -1.057154e+001  2.400000e+001 -3.847727e+000
      vertex -8.618000e+000  2.400000e+001 -7.231360e+000
    endloop
  endfacet
  facet normal -6.427875e-001  -0.000000e+000 -7.660444e-001
    outer loop
      vertex -8.618000e+000  1.000000e+001 -7.231360e+000
      vertex -8.618000e+000  2.400000e+001 -7.231360e+000
      vertex -5.625000e+000  1.000000e+001 -9.742785e+000
    endloop
  endfacet
  facet normal -6.427875e-001  0.000000e+000 -7.660444e-001
    outer loop
      vertex -5.625000e+000  1.000000e+001 -9.742785e+000
      vertex -8.618000e+000  2.400000e+001 -7.231360e+000
      vertex -5.625000e+000  2.400000e+001 -9.742785e+000
    endloop
  endfacet
  facet normal -3.420202e-001  -0.000000e+000 -9.396926e-001
    outer loop
      vertex -5.625000e+000  1.000000e+001 -9.742785e+000
      vertex -5.625000e+000  2.400000e+001 -9.742785e+000
      vertex -1.953542e+000  1.000000e+001 -1.107909e+001
    endloop
  endfacet
  facet normal -3.420202e-001  0.000000e+000 -9.396926e-001
    outer loop
      vertex -1.953542e+000  1.000000e+001 -1.107909e+001
      vertex -5.625000e+000  2.400000e+001 -9.742785e+000
      vertex -1.953542e+000  2.400000e+001 -1.107909e+001
    endloop
  endfacet
  facet normal  0.000000e+000  0.000000e+000 -9.999999e-001
    outer loop
      vertex -1.953542e+000  1.000000e+001 -1.107909e+001
      vertex -1.953542e+000  2.400000e+001 -1.107909e+001
      vertex  1.953542e+000  1.000000e+001 -1.107909e+001
    endloop
  endfacet
  facet normal  0.000000e+000  0.000000e+000 -9.999999e-001
    outer loop
      vertex  1.953542e+000  1.000000e+001 -1.107909e+001
      vertex -1.953542e+000  2.400000e+001 -1.107909e+001
      vertex  1.953542e+000  2.400000e+001 -1.107909e+001
    endloop
  endfacet
  facet normal  3.420202e-001  0.000000e+000 -9.396926e-001
    outer loop
      vertex  1.953542e+000  1.000000e+001 -1.107909e+001
      vertex  1.953542e+000  2.400000e+001 -1.107909e+001
      vertex  5.625000e+000  1.000000e+001 -9.742785e+000
    endloop
  endfacet
  facet normal  3.420202e-001  0.000000e+000 -9.396926e-001
    outer loop
      vertex  5.625000e+000  1.000000e+001 -9.742785e+000
      vertex  1.953542e+000  2.400000e+001 -1.107909e+001
      vertex  5.625000e+000  2.400000e+001 -9.742785e+000
    endloop
  endfacet
  facet normal  6.427875e-001  0.000000e+000 -7.660444e-001
    outer loop
      vertex  5.625000e+000  1.000000e+001 -9.742785e+000
      vertex  5.625000e+000  2.400000e+001 -9.742785e+000
      vertex  8.618000e+000  1.000000e+001 -7.231360e+000
    endloop
  endfacet
  facet normal  6.427875e-001  0.000000e+000 -7.660444e-001
    outer loop
      vertex  8.618000e+000  1.000000e+001 -7.231360e+000
      vertex  5.625000e+000  2.400000e+001 -9.742785e+000
      vertex  8.618000e+000  2.400000e+001 -7.231360e+000
    endloop
  endfacet
  facet normal  8.660254e-001  0.000000e+000 -5.000000e-001
    outer loop
      vertex  8.618000e+000  1.000000e+001 -7.231360e+000
      vertex  8.618000e+000  2.400000e+001 -7.231360e+000
      vertex  1.057154e+001  1.000000e+001 -3.847727e+000
    endloop
  endfacet
  facet normal  8.660254e-001  0.000000e+000 -5.000000e-001
    outer loop
      vertex  1.057154e+001  1.000000e+001 -3.847727e+000
      vertex  8.618000e+000  2.400000e+001 -7.231360e+000
      vertex  1.057154e+001  2.400000e+001 -3.847727e+000
    endloop
  endfacet
  facet normal  9.848077e-001  0.000000e+000 -1.736482e-001
    outer loop
      vertex  1.057154e+001  1.000000e+001 -3.847727e+000
      vertex  1.057154e+001  2.400000e+001 -3.847727e+000
      vertex  1.125000e+001  1.000000e+001  6.373686e-015
    endloop
  endfacet
  facet normal  9.848077e-001 -6.196765e-017 -1.736482e-001
    outer loop
      vertex  1.125000e+001  1.000000e+001  6.373686e-015
      vertex  1.057154e+001  2.400000e+001 -3.847727e+000
      vertex  1.125000e+001  2.400000e+001  1.377682e-015
    endloop
  endfacet
  facet normal  9.848077e-001  6.196765e-017  1.736482e-001
    outer loop
      vertex  1.125000e+001  1.000000e+001  6.373686e-015
      vertex  1.125000e+001  2.400000e+001  1.377682e-015
      vertex  1.057154e+001  1.000000e+001  3.847727e+000
    endloop
  endfacet
  facet normal  9.848077e-001  -0.000000e+000  1.736482e-001
    outer loop
      vertex  1.057154e+001  1.000000e+001  3.847727e+000
      vertex  1.125000e+001  2.400000e+001  1.377682e-015
      vertex  1.057154e+001  2.400000e+001  3.847727e+000
    endloop
  endfacet
  facet normal  8.660254e-001  0.000000e+000  5.000000e-001
    outer loop
      vertex  1.057154e+001  1.000000e+001  3.847727e+000
      vertex  1.057154e+001  2.400000e+001  3.847727e+000
      vertex  8.618000e+000  1.000000e+001  7.231360e+000
    endloop
  endfacet
  facet normal  8.660254e-001  -0.000000e+000  5.000000e-001
    outer loop
      vertex  8.618000e+000  1.000000e+001  7.231360e+000
      vertex  1.057154e+001  2.400000e+001  3.847727e+000
      vertex  8.618000e+000  2.400000e+001  7.231360e+000
    endloop
  endfacet
  facet normal  6.427875e-001  0.000000e+000  7.660444e-001
    outer loop
      vertex  8.618000e+000  1.000000e+001  7.231360e+000
      vertex  8.618000e+000  2.400000e+001  7.231360e+000
      vertex  5.625000e+000  1.000000e+001  9.742785e+000
    endloop
  endfacet
  facet normal  6.427875e-001  -0.000000e+000  7.660444e-001
    outer loop
      vertex  5.625000e+000  1.000000e+001  9.742785e+000
      vertex  8.618000e+000  2.400000e+001  7.231360e+000
      vertex  5.625000e+000  2.400000e+001  9.742785e+000
    endloop
  endfacet
  facet normal  3.420202e-001  0.000000e+000  9.396926e-001
    outer loop
      vertex  5.625000e+000  1.000000e+001  9.742785e+000
      vertex  5.625000e+000  2.400000e+001  9.742785e+000
      vertex  1.953542e+000  1.000000e+001  1.107909e+001
    endloop
  endfacet
  facet normal  3.420202e-001  -0.000000e+000  9.396926e-001
    outer loop
      vertex  1.953542e+000  1.000000e+001  1.107909e+001
      vertex  5.625000e+000  2.400000e+001  9.742785e+000
      vertex  1.953542e+000  2.400000e+001  1.107909e+001
    endloop
  endfacet
  facet normal  0.000000e+000  0.000000e+000  9.999999e-001
    outer loop
      vertex  1.953542e+000  1.000000e+001  1.107909e+001
      vertex  1.953542e+000  2.400000e+001  1.107909e+001
      vertex -1.953542e+000  1.000000e+001  1.107909e+001
    endloop
  endfacet
  facet normal  0.000000e+000  0.000000e+000  9.999999e-001
    outer loop
      vertex -1.953542e+000  1.000000e+001  1.107909e+001
      vertex  1.953542e+000  2.400000e+001  1.107909e+001
      vertex -1.953542e+000  2.400000e+001  1.107909e+001
    endloop
  endfacet
  facet normal -3.420202e-001  0.000000e+000  9.396926e-001
    outer loop
      vertex -1.953542e+000  1.000000e+001  1.107909e+001
      vertex -1.953542e+000  2.400000e+001  1.107909e+001
      vertex -5.625000e+000  1.000000e+001  9.742785e+000
    endloop
  endfacet
  facet normal -3.420202e-001  0.000000e+000  9.396926e-001
    outer loop
      vertex -5.625000e+000  1.000000e+001  9.742785e+000
      vertex -1.953542e+000  2.400000e+001  1.107909e+001
      vertex -5.625000e+000  2.400000e+001  9.742785e+000
    endloop
  endfacet
  facet normal -6.427875e-001  0.000000e+000  7.660444e-001
    outer loop
      vertex -5.625000e+000  1.000000e+001  9.742785e+000
      vertex -5.625000e+000  2.400000e+001  9.742785e+000
      vertex -8.618000e+000  1.000000e+001  7.231360e+000
    endloop
  endfacet
  facet normal -6.427875e-001  0.000000e+000  7.660444e-001
    outer loop
      vertex -8.618000e+000  1.000000e+001  7.231360e+000
      vertex -5.625000e+000  2.400000e+001  9.742785e+000
      vertex -8.618000e+000  2.400000e+001  7.231360e+000
    endloop
  endfacet
  facet normal -8.660254e-001  0.000000e+000  5.000000e-001
    outer loop
      vertex -8.618000e+000  1.000000e+001  7.231360e+000
      vertex -8.618000e+000  2.400000e+001  7.231360e+000
      vertex -1.057154e+001  1.000000e+001  3.847727e+000
    endloop
  endfacet
  facet normal -8.660254e-001  0.000000e+000  5.000000e-001
    outer loop
      vertex -1.057154e+001  1.000000e+001  3.847727e+000
      vertex -8.618000e+000  2.400000e+001  7.231360e+000
      vertex -1.057154e+001  2.400000e+001  3.847727e+000
    endloop
  endfacet
  facet normal -9.848077e-001  0.000000e+000  1.736482e-001
    outer loop
      vertex -1.057154e+001  1.000000e+001  3.847727e+000
      vertex -1.057154e+001  2.400000e+001  3.847727e+000
      vertex -1.125000e+001  1.000000e+001  0.000000e+000
    endloop
  endfacet
  facet normal -9.848077e-001  0.000000e+000  1.736482e-001
    outer loop
      vertex -1.125000e+001  1.000000e+001  0.000000e+000
      vertex -1.057154e+001  2.400000e+001  3.847727e+000
      vertex -1.125000e+001  2.400000e+001  0.000000e+000
    endloop
  endfacet
  facet normal  0.000000e+000  -0.000000e+000  1.000000e+000
    outer loop
      vertex -1.996000e+001 -5.000000e+000  3.000000e+001
      vertex  1.996000e+001 -5.000000e+000  3.000000e+001
      vertex  1.996000e+001  5.000000e+000  3.000000e+001
    endloop
  endfacet
  facet normal  0.000000e+000  0.000000e+000  1.000000e+000
    outer loop
      vertex -1.996000e+001 -5.000000e+000  3.000000e+001
      vertex  1.996000e+001  5.000000e+000  3.000000e+001
      vertex  1.496000e+001  5.000000e+000  3.000000e+001
    endloop
  endfacet
  facet normal  0.000000e+000  0.000000e+000  1.000000e+000
    outer loop
      vertex -1.996000e+001 -5.000000e+000  3.000000e+001
      vertex  1.496000e+001  5.000000e+000  3.000000e+001
      vertex -1.496000e+001  5.000000e+000  3.000000e+001
    endloop
  endfacet
  facet normal  0.000000e+000  0.000000e+000  1.000000e+000
    outer loop
      vertex -1.996000e+001 -5.000000e+000  3.000000e+001
      vertex -1.496000e+001  5.000000e+000  3.000000e+001
      vertex -1.996000e+001  5.000000e+000  3.000000e+001
    endloop
  endfacet
  facet normal  0.000000e+000  0.000000e+000  1.000000e+000
    outer loop
      vertex -1.496000e+001  5.000000e+000  3.000000e+001
      vertex  1.496000e+001  5.000000e+000  3.000000e+001
      vertex -1.496000e+001  1.000000e+001  3.000000e+001
    endloop
  endfacet
  facet normal  -0.000000e+000  0.000000e+000  1.000000e+000
    outer loop
      vertex -1.496000e+001  1.000000e+001  3.000000e+001
      vertex  1.496000e+001  5.000000e+000  3.000000e+001
      vertex  1.496000e+001  1.000000e+001  3.000000e+001
    endloop
  endfacet
  facet normal  0.000000e+000  0.000000e+000 -1.000000e+000
    outer loop
      vertex -1.996000e+001 -5.000000e+000 -3.000000e+001
      vertex -1.996000e+001  5.000000e+000 -3.000000e+001
      vertex -1.496000e+001  5.000000e+000 -3.000000e+001
    endloop
  endfacet
  facet normal  0.000000e+000  -0.000000e+000 -1.000000e+000
    outer loop
      vertex -1.996000e+001 -5.000000e+000 -3.000000e+001
      vertex -1.496000e+001  5.000000e+000 -3.000000e+001
      vertex  1.496000e+001  5.000000e+000 -3.000000e+001
    endloop
  endfacet
  facet normal  0.000000e+000  -0.000000e+000 -1.000000e+000
    outer loop
      vertex -1.996000e+001 -5.000000e+000 -3.000000e+001
      vertex  1.496000e+001  5.000000e+000 -3.000000e+001
      vertex  1.996000e+001  5.000000e+000 -3.000000e+001
    endloop
  endfacet
  facet normal  0.000000e+000  -0.000000e+000 -1.000000e+000
    outer loop
      vertex -1.996000e+001 -5.000000e+000 -3.000000e+001
      vertex  1.996000e+001  5.000000e+000 -3.000000e+001
      vertex  1.996000e+001 -5.000000e+000 -3.000000e+001
    endloop
  endfacet
  facet normal  0.000000e+000  0.000000e+000 -1.000000e+000
    outer loop
      vertex -1.496000e+001  5.000000e+000 -3.000000e+001
      vertex -1.496000e+001  1.000000e+001 -3.000000e+001
      vertex  1.496000e+001  5.000000e+000 -3.000000e+001
    endloop
  endfacet
  facet normal  0.000000e+000  0.000000e+000 -1.000000e+000
    outer loop
      vertex  1.496000e+001  5.000000e+000 -3.000000e+001
      vertex -1.496000e+001  1.000000e+001 -3.000000e+001
      vertex  1.496000e+001  1.000000e+001 -3.000000e+001
    endloop
  endfacet
  facet normal -1.000000e+000  0.000000e+000  0.000000e+000
    outer loop
      vertex -1.496000e+001  1.000000e+001 -3.000000e+001
      vertex -1.496000e+001  5.000000e+000 -3.000000e+001
      vertex -1.496000e+001  1.000000e+001  3.000000e+001
    endloop
  endfacet
  facet normal -1.000000e+000  -0.000000e+000  0.000000e+000
    outer loop
      vertex -1.496000e+001  1.000000e+001  3.000000e+001
      vertex -1.496000e+001  5.000000e+000 -3.000000e+001
      vertex -1.496000e+001  5.000000e+000  3.000000e+001
    endloop
  endfacet
  facet normal  1.000000e+000  0.000000e+000  0.000000e+000
    outer loop
      vertex  1.496000e+001  5.000000e+000 -3.000000e+001
      vertex  1.496000e+001  1.000000e+001 -3.000000e+001
      vertex  1.496000e+001  5.000000e+000  3.000000e+001
    endloop
  endfacet
  facet normal  1.000000e+000  -0.000000e+000  0.000000e+000
    outer loop
      vertex  1.496000e+001  5.000000e+000  3.000000e+001
      vertex  1.496000e+001  1.000000e+001 -3.000000e+001
      vertex  1.496000e+001  1.000000e+001  3.000000e+001
    endloop
  endfacet
  facet normal  1.000000e+000  0.000000e+000  0.000000e+000
    outer loop
      vertex  1.996000e+001 -5.000000e+000 -3.000000e+001
      vertex  1.996000e+001  5.000000e+000 -3.000000e+001
      vertex  1.996000e+001 -5.000000e+000  3.000000e+001
    endloop
  endfacet
  facet normal  1.000000e+000  -0.000000e+000  0.000000e+000
    outer loop
      vertex  1.996000e+001 -5.000000e+000  3.000000e+001
      vertex  1.996000e+001  5.000000e+000 -3.000000e+001
      vertex  1.996000e+001  5.000000e+000  3.000000e+001
    endloop
  endfacet
  facet normal -1.000000e+000  0.000000e+000  0.000000e+000
    outer loop
      vertex -1.996000e+001  5.000000e+000 -3.000000e+001
      vertex -1.996000e+001 -5.000000e+000 -3.000000e+001
      vertex -1.996000e+001  5.000000e+000  3.000000e+001
    endloop
  endfacet
  facet normal -1.000000e+000  -0.000000e+000  0.000000e+000
    outer loop
      vertex -1.996000e+001  5.000000e+000  3.000000e+001
      vertex -1.996000e+001 -5.000000e+000 -3.000000e+001
      vertex -1.996000e+001 -5.000000e+000  3.000000e+001
    endloop
  endfacet
endsolid CATIA STL
